<mxfile host="65bd71144e">
    <diagram id="QuIzqP2fzbEH2fCCGgYl" name="Page-1">
        <mxGraphModel dx="1132" dy="698" grid="1" gridSize="12" guides="1" tooltips="1" connect="1" arrows="1" fold="1" page="1" pageScale="1" pageWidth="827" pageHeight="1169" background="none" math="0" shadow="0">
            <root>
                <mxCell id="0"/>
                <mxCell id="1" parent="0"/>
                <mxCell id="2" value="" style="swimlane;align=left;startSize=74;fillColor=#1ba1e2;strokeColor=#006EAF;fontColor=#ffffff;" vertex="1" parent="1">
                    <mxGeometry x="5" y="10" width="816" height="560" as="geometry"/>
                </mxCell>
                <mxCell id="9" style="edgeStyle=none;html=1;exitX=0.25;exitY=1;exitDx=0;exitDy=0;entryX=0.5;entryY=1;entryDx=0;entryDy=0;" edge="1" parent="2">
                    <mxGeometry relative="1" as="geometry">
                        <mxPoint x="340.25" y="60" as="sourcePoint"/>
                        <mxPoint x="362.5" y="60" as="targetPoint"/>
                    </mxGeometry>
                </mxCell>
                <mxCell id="10" value="&lt;b&gt;&lt;font style=&quot;font-size: 18px&quot;&gt;Contac Us&lt;/font&gt;&lt;/b&gt;" style="rounded=1;whiteSpace=wrap;html=1;align=center;" vertex="1" parent="2">
                    <mxGeometry x="426" y="14" width="101" height="36" as="geometry"/>
                </mxCell>
                <mxCell id="11" value="&lt;span style=&quot;font-size: 18px&quot;&gt;&lt;b&gt;Menu&lt;/b&gt;&lt;/span&gt;" style="rounded=1;whiteSpace=wrap;html=1;align=center;" vertex="1" parent="2">
                    <mxGeometry x="318" y="14" width="89" height="36" as="geometry"/>
                </mxCell>
                <mxCell id="12" value="&lt;span style=&quot;font-size: 18px&quot;&gt;&lt;b&gt;About Us&lt;/b&gt;&lt;/span&gt;" style="rounded=1;whiteSpace=wrap;html=1;align=center;" vertex="1" parent="2">
                    <mxGeometry x="210" y="14" width="89" height="36" as="geometry"/>
                </mxCell>
                <mxCell id="13" value="LOGO" style="ellipse;whiteSpace=wrap;html=1;align=center;" vertex="1" parent="2">
                    <mxGeometry x="19" y="8" width="48" height="48" as="geometry"/>
                </mxCell>
                <mxCell id="15" value="&lt;b&gt;&lt;font style=&quot;font-size: 18px&quot;&gt;HOME&lt;/font&gt;&lt;/b&gt;" style="rounded=1;whiteSpace=wrap;html=1;align=center;" vertex="1" parent="2">
                    <mxGeometry x="102" y="14" width="89" height="36" as="geometry"/>
                </mxCell>
                <mxCell id="14" value="" style="rounded=0;whiteSpace=wrap;html=1;align=left;fillColor=#6a00ff;strokeColor=#3700CC;fontColor=#ffffff;" vertex="1" parent="1">
                    <mxGeometry x="12" y="84" width="804" height="156" as="geometry"/>
                </mxCell>
            </root>
        </mxGraphModel>
    </diagram>
</mxfile>